<svg id="Capa_1" enable-background="new 0 0 512.012 512.012" height="512" viewBox="0 0 512.012 512.012" width="512" xmlns="http://www.w3.org/2000/svg"><g><path d="m436.319 75.694c-100.907-100.907-259.682-100.943-360.625 0-100.907 100.907-100.942 259.682 0 360.625 100.907 100.908 259.682 100.943 360.625 0 100.907-100.908 100.942-259.683 0-360.625zm-180.313 406.312c-124.065 0-226-101.935-226-226s101.935-226 226-226 226 101.935 226 226-101.935 226-226 226z"/><path d="m299.128 234.098c31.069 15.474 67.878-7.238 67.878-42.092 0-25.916-21.084-47-47-47-34.854 0-57.565 36.809-42.092 67.878l-21.908 21.908-21.908-21.908c15.474-31.069-7.237-67.878-42.092-67.878-25.916 0-47 21.084-47 47 0 34.85 36.805 57.568 67.878 42.092l21.908 21.908-21.908 21.908c-31.069-15.474-67.878 7.238-67.878 42.092 0 25.916 21.084 47 47 47 34.854 0 57.565-36.809 42.092-67.878l21.908-21.908 21.908 21.908c-15.474 31.069 7.237 67.878 42.092 67.878 25.916 0 47-21.084 47-47 0-34.85-36.805-57.568-67.878-42.092l-21.908-21.908zm20.878-59.092c9.374 0 17 7.626 17 17s-7.626 17-17 17-17-7.626-17-17 7.626-17 17-17zm-145 17c0-9.374 7.626-17 17-17s17 7.626 17 17-7.626 17-17 17-17-7.626-17-17zm17 145c-9.374 0-17-7.626-17-17s7.626-17 17-17 17 7.626 17 17-7.626 17-17 17zm145-17c0 9.374-7.626 17-17 17s-17-7.626-17-17 7.626-17 17-17 17 7.626 17 17z"/><path d="m256.006 65.006c-105.317 0-191 85.682-191 191s85.683 191 191 191 191-85.682 191-191-85.683-191-191-191zm0 352c-88.775 0-161-72.224-161-161s72.225-161 161-161 161 72.224 161 161-72.225 161-161 161z"/></g></svg>